<svg preserveAspectRatio="none" width="1728" height="1117" viewBox="0 0 1728 1117" fill="none" xmlns="http://www.w3.org/2000/svg">
<g clip-path="url(#clip0_176_42)">
<rect width="1728" height="3351" fill="#4CE5ED"/>
<path d="M1727.76 3112.03V3346C1775.34 3534.67 221 3757 1516.5 3228C1605.81 3191.53 1675.07 3152.88 1727.76 3112.03V2379.3C1631.94 2155.94 1534.86 1903.47 1599 1621.5C1732.2 1035.9 1462.68 296.5 1311.26 0H1727.76V2379.3C1854.12 2673.84 1978.3 2917.77 1727.76 3112.03Z" fill="#F5B025"/>
<path d="M-8.7738e-05 598C42.395 685.852 111.682 925.671 49.6671 1182.13C-27.8509 1502.7 67.6086 2161.5 78.4999 2398C87.7202 2598.22 40.1372 2655.5 -7.69547 2830.5L-9.14471 3250.9C40.526 3305.64 131.097 3333.13 271 3354H-9.50008L-9.14471 3250.9C-76.1038 3177.12 -68.736 3053.82 -7.69547 2830.5L-8.7738e-05 598Z" fill="#1F1C4B"/>
<path d="M1566 1107.54L1728 973V1284L1566 1107.54Z" fill="#DD0F8D"/>
</g>
<defs>
<clipPath id="clip0_176_42">
<rect width="1728" height="3351" fill="white"/>
</clipPath>
</defs>
</svg>
