<svg preserveAspectRatio="none" width="1728" height="1117" viewBox="0 0 1728 1117" fill="none" xmlns="http://www.w3.org/2000/svg">
<g clip-path="url(#clip0_176_42)">
<rect width="1728" height="3351" transform="translate(0 -2234)" fill="#4CE5ED"/>
<path d="M1727.76 878.025V1112C1775.34 1300.67 221 1523 1516.5 994C1605.81 957.534 1675.07 918.878 1727.76 878.025V145.297C1631.94 -78.0645 1534.86 -330.529 1599 -612.5C1732.2 -1198.1 1462.68 -1937.5 1311.26 -2234H1727.76V145.297C1854.12 439.84 1978.3 683.774 1727.76 878.025Z" fill="#F5B025"/>
<path d="M-8.7738e-05 -1636C42.395 -1548.15 111.682 -1308.33 49.6671 -1051.87C-27.8509 -731.305 67.6086 -72.5 78.4999 164C87.7202 364.218 40.1372 421.5 -7.69547 596.5L-9.14471 1016.9C40.526 1071.64 131.097 1099.13 271 1120H-9.50008L-9.14471 1016.9C-76.1038 943.118 -68.736 819.822 -7.69547 596.5L-8.7738e-05 -1636Z" fill="#1F1C4B"/>
<path d="M1566 82.614L1728 -45V250L1566 82.614Z" fill="#DD0F8D"/>
</g>
<defs>
<clipPath id="clip0_176_42">
<rect width="1728" height="3351" fill="white" transform="translate(0 -2234)"/>
</clipPath>
</defs>
</svg>
