<svg preserveAspectRatio="none" width="1728" height="1117" viewBox="0 0 1728 1117" fill="none" xmlns="http://www.w3.org/2000/svg">
<g clip-path="url(#clip0_176_42)">
<rect width="1728" height="3351" transform="translate(0 -1117)" fill="#4CE5ED"/>
<path d="M1727.76 1995.03V2229C1775.34 2417.67 221 2640 1516.5 2111C1605.81 2074.53 1675.07 2035.88 1727.76 1995.03V1262.3C1631.94 1038.94 1534.86 786.471 1599 504.5C1732.2 -81.1 1462.68 -820.5 1311.26 -1117H1727.76V1262.3C1854.12 1556.84 1978.3 1800.77 1727.76 1995.03Z" fill="#F5B025"/>
<path d="M-8.7738e-05 -519C42.395 -431.148 111.682 -191.329 49.6671 65.1262C-27.8509 385.695 67.6086 1044.5 78.4999 1281C87.7202 1481.22 40.1372 1538.5 -7.69547 1713.5L-9.14471 2133.9C40.526 2188.64 131.097 2216.13 271 2237H-9.50008L-9.14471 2133.9C-76.1038 2060.12 -68.736 1936.82 -7.69547 1713.5L-8.7738e-05 -519Z" fill="#1F1C4B"/>
<path d="M1566 1199.61L1728 1072V1367L1566 1199.61Z" fill="#DD0F8D"/>
<path d="M1566 -9.4646L1728 -144V167L1566 -9.4646Z" fill="#DD0F8D"/>
</g>
<defs>
<clipPath id="clip0_176_42">
<rect width="1728" height="3351" fill="white" transform="translate(0 -1117)"/>
</clipPath>
</defs>
</svg>
